<mxfile host="app.diagrams.net" modified="2022-02-25T09:54:06.875Z" agent="5.0 (Windows NT 10.0; Win64; x64) AppleWebKit/537.36 (KHTML, like Gecko) Chrome/88.0.4324.150 Safari/537.36" etag="PX2cVfSsjHT6_fD7siRk" version="16.6.4" type="github">
  <diagram id="4tfmIN7OKAYoD6fp-gIe" name="Page-1">
    <mxGraphModel dx="1422" dy="762" grid="1" gridSize="10" guides="1" tooltips="1" connect="1" arrows="1" fold="1" page="1" pageScale="1" pageWidth="827" pageHeight="1169" math="0" shadow="0">
      <root>
        <mxCell id="0" />
        <mxCell id="1" parent="0" />
        <object label="&lt;font style=&quot;vertical-align: inherit&quot;&gt;&lt;font style=&quot;vertical-align: inherit&quot;&gt;Виды тестирования&lt;/font&gt;&lt;/font&gt;" Значение="Данная процедура..." id="R14gxlKBAzf3O25LpnHq-1">
          <mxCell style="rounded=1;whiteSpace=wrap;html=1;comic=0;" vertex="1" parent="1">
            <mxGeometry x="260" y="110" width="120" height="60" as="geometry" />
          </mxCell>
        </object>
      </root>
    </mxGraphModel>
  </diagram>
</mxfile>
